<?xml version="1.0" encoding="UTF-8" standalone="no"?>
<!DOCTYPE svg PUBLIC "-//W3C//DTD SVG 1.1//EN" "http://www.w3.org/Graphics/SVG/1.1/DTD/svg11.dtd">
<svg version="1.1" xmlns="http://www.w3.org/2000/svg" xmlns:xlink="http://www.w3.org/1999/xlink" preserveAspectRatio="xMidYMid meet" viewBox="0 0 80 80" width="80" height="80"><defs><path d="M67.34 11.62C71.23 11.62 74.39 14.78 74.39 18.67C74.39 20.08 74.39 17.26 74.39 18.67C74.39 22.56 71.23 25.72 67.34 25.72C54.99 25.72 25.01 25.72 12.66 25.72C8.77 25.72 5.61 22.56 5.61 18.67C5.61 17.26 5.61 20.08 5.61 18.67C5.61 14.78 8.77 11.62 12.66 11.62C25.01 11.62 54.99 11.62 67.34 11.62Z" id="d6hfOZLMgV"></path><path d="M58.57 32.95C61.87 32.95 64.55 35.63 64.55 38.93C64.55 40.56 64.55 39.44 64.55 41.07C64.55 44.37 61.87 47.05 58.57 47.05C49.94 47.05 30.06 47.05 21.43 47.05C18.13 47.05 15.45 44.37 15.45 41.07C15.45 39.44 15.45 40.56 15.45 38.93C15.45 35.63 18.13 32.95 21.43 32.95C30.06 32.95 49.94 32.95 58.57 32.95Z" id="am480DtkE"></path><path d="M67.34 54.31C71.23 54.31 74.39 57.46 74.39 61.36C74.39 62.77 74.39 59.95 74.39 61.36C74.39 65.25 71.23 68.4 67.34 68.4C54.99 68.4 25.01 68.4 12.66 68.4C8.77 68.4 5.61 65.25 5.61 61.36C5.61 59.95 5.61 62.77 5.61 61.36C5.61 57.46 8.77 54.31 12.66 54.31C25.01 54.31 54.99 54.31 67.34 54.31Z" id="a3iPUPBxDz"></path></defs><g><g><g><use xlink:href="#d6hfOZLMgV" opacity="1" fill="#06b6d4" fill-opacity="1"></use></g><g><use xlink:href="#am480DtkE" opacity="1" fill="#06b6d4" fill-opacity="1"></use></g><g><use xlink:href="#a3iPUPBxDz" opacity="1" fill="#06b6d4" fill-opacity="1"></use></g></g></g></svg>
