<?xml version="1.0" encoding="UTF-8" standalone="no"?>
<!DOCTYPE svg PUBLIC "-//W3C//DTD SVG 1.1//EN" "http://www.w3.org/Graphics/SVG/1.1/DTD/svg11.dtd">
<svg version="1.1" xmlns="http://www.w3.org/2000/svg" xmlns:xlink="http://www.w3.org/1999/xlink" preserveAspectRatio="xMidYMid meet" viewBox="0 0 80 80" width="80" height="80"><defs><path d="M75.55 14.2C75.55 15.36 75.55 13.04 75.55 14.2C75.55 17.4 72.39 20 68.5 20C56.15 20 26.17 20 13.82 20C9.93 20 6.77 17.4 6.77 14.2C6.77 13.04 6.77 15.36 6.77 14.2C6.77 11 9.93 8.4 13.82 8.4C26.17 8.4 56.15 8.4 68.5 8.4C72.39 8.4 75.55 11 75.55 14.2Z" id="ddyfgmt8x"></path><path d="M74.39 65.8C74.39 66.96 74.39 64.64 74.39 65.8C74.39 69 71.23 71.6 67.34 71.6C54.99 71.6 25.01 71.6 12.66 71.6C8.77 71.6 5.61 69 5.61 65.8C5.61 64.64 5.61 66.96 5.61 65.8C5.61 62.6 8.77 60 12.66 60C25.01 60 54.99 60 67.34 60C71.23 60 74.39 62.6 74.39 65.8Z" id="fiTC23iol"></path><path d="M64.9 40C64.9 41.16 64.9 38.84 64.9 40C64.9 43.2 62.61 45.8 59.8 45.8C50.85 45.8 29.15 45.8 20.2 45.8C17.39 45.8 15.1 43.2 15.1 40C15.1 38.84 15.1 41.16 15.1 40C15.1 36.8 17.39 34.2 20.2 34.2C29.15 34.2 50.85 34.2 59.8 34.2C62.61 34.2 64.9 36.8 64.9 40Z" id="a2tD3yzZAk"></path></defs><g><g><g><use xlink:href="#ddyfgmt8x" opacity="1" fill="#06b6d4" fill-opacity="1"></use><g><use xlink:href="#ddyfgmt8x" opacity="1" fill-opacity="0" stroke="#000000" stroke-width="1" stroke-opacity="0"></use></g></g><g><use xlink:href="#fiTC23iol" opacity="1" fill="#06b6d4" fill-opacity="1"></use><g><use xlink:href="#fiTC23iol" opacity="1" fill-opacity="0" stroke="#000000" stroke-width="1" stroke-opacity="0"></use></g></g><g><use xlink:href="#a2tD3yzZAk" opacity="1" fill="#06b6d4" fill-opacity="1"></use><g><use xlink:href="#a2tD3yzZAk" opacity="1" fill-opacity="0" stroke="#000000" stroke-width="1" stroke-opacity="0"></use></g></g></g></g></svg>